<svg width="90" height="90" viewBox="0 0 90 90" fill="none" xmlns="http://www.w3.org/2000/svg">
    <path d="M45.0003 0C20.1476 0 0 20.2318 0 45.1884C0 67.5716 16.2235 86.1086 37.4951 89.6981V54.6159H26.6397V41.9913H37.4951V32.6823C37.4951 21.8813 44.0646 15.9954 53.6612 15.9954C58.2573 15.9954 62.2072 16.3393 63.3538 16.4908V27.7807L56.6979 27.7839C51.4801 27.7839 50.4741 30.2733 50.4741 33.9276V41.9848H62.9244L61.3005 54.6095H50.4741V90C72.7389 87.2789 90 68.2696 90 45.1755C90 20.2318 69.8524 0 45.0003 0Z" fill="white"/>
</svg>
