<svg width="220" height="123" viewBox="0 0 220 123" fill="none" xmlns="http://www.w3.org/2000/svg">
    <path d="M110 0C48.9593 0 0 27.8079 0 61.5C0 95.1921 48.4746 123 110 123C171.078 123 220 95.1921 220 61.5C220 27.8079 170.742 0 110 0ZM109.888 119.811C53.8254 119.811 5.83559 93.237 5.83559 61.481C5.83559 29.725 54.9254 2.63843 109.888 2.63843C165.82 2.63843 213.885 29.8579 213.885 61.481C213.885 93.1042 165.503 119.811 109.795 119.811H109.888Z" fill="white"/>
    <path d="M193.357 54.4957C189.964 55.217 186.813 56.3939 183.588 57.324C181.481 58.0041 179.332 58.5431 177.156 58.9374H176.242L176.652 58.33C176.951 57.9883 177.268 57.6656 177.603 57.343C180.847 54.0592 184.576 51.2499 187.839 48.08C188.901 46.8082 191.232 45.8402 190.468 43.5244C189.778 43.1448 187.932 43.9231 187.037 44.3406C180.401 47.6909 174.288 52.0211 168.896 57.1911L168.412 57.6846C165.261 60.1332 164.683 65.8087 159.984 65.467C158.439 65.4637 156.901 65.2401 155.417 64.8027C160.208 61.0064 169.456 48.3457 170.332 45.3087C170.332 45.3087 171.152 42.5754 170.015 42.6703C165.596 44.3217 161.439 48.1749 158.008 51.2879C158.325 49.7504 160.749 46.8272 159.574 45.043C151.949 46.7133 141.191 57.2291 141.135 57.267C139.084 58.6527 138.339 63.1513 135.151 62.4869C133.248 62.434 131.363 62.095 129.557 61.4809C131.606 60.2155 133.58 58.8274 135.468 57.324C139.868 53.8314 143.951 49.8263 148.127 45.9351C148.369 45.3656 149.73 44.7962 148.947 44.0369C147.623 42.936 146.057 44.5494 144.622 44.8152C138.518 47.5775 133.211 51.8836 129.203 57.324C128.219 58.4604 127.298 59.6518 126.444 60.8925C123.33 60.5129 121.671 60.6837 120.142 59.6587L123.051 57.324C128.14 53.167 133.323 49.086 137.201 42.917C136.81 40.8291 134.778 42.4994 133.79 42.917C126.876 46.1312 120.985 51.2538 116.786 57.7036C116.525 58.1212 116.264 58.5578 116.003 59.0133C113.188 58.8694 110.396 58.4305 107.669 57.7036H107.52V57.4189C114.528 53.4436 120.429 47.7223 124.673 40.7911C124.673 40.7911 128.401 33.9198 120.123 39.5953C113.407 43.8545 107.909 49.8378 104.183 56.9443C104.183 56.9443 99.9879 57.1152 99.9879 56.6406C104.619 51.143 108.358 44.9273 111.062 38.2286C111.305 37.1656 111.92 34.9828 110.429 34.736C104.835 37.1656 101.107 43.961 98.1048 50.3388C97.1913 52.2369 96.6879 54.5717 95.8675 56.3559C92.1387 56.1661 89.5285 56.5078 85.9302 55.4069C90.4421 51.3069 95.3641 47.9471 99.4845 43.0499C100.174 41.7022 104.798 38.4374 104.686 34.2235C103.251 33.3124 101.796 34.3943 100.957 35.0587L88.2794 45.4606H87.6268C89.6404 41.6643 94.0404 36.2925 95.8489 32.4393C96.6156 31.2326 97.0709 29.8486 97.1726 28.4152L96.054 28.0356C91.0745 30.4418 86.681 33.9421 83.1896 38.2844C79.6982 42.6267 77.1958 47.7031 75.8624 53.1481C75.098 54.249 74.7252 56.3749 73.1777 55.7485C72.8485 52.6107 72.0631 49.5401 70.8472 46.6374C67.2676 38.6941 61.4202 32.0331 54.0675 27.5231C52.893 26.8397 52.2031 28.1494 52.5946 29.1555C53.6201 35.1156 57.1811 38.855 59.6421 43.3726C62.8216 47.9154 66.2384 52.2811 69.8777 56.4508C68.8336 56.9444 42.8811 63.2462 38.1455 67.1184C36.1256 68.2443 34.4631 69.9336 33.3535 71.988C32.2438 74.0424 31.733 76.3764 31.8811 78.7161C31.9603 79.7562 32.3187 80.7542 32.9171 81.6011C33.5155 82.448 34.3309 83.1112 35.2743 83.5184C35.9281 83.7253 36.6156 83.7983 37.2972 83.7331C37.9788 83.6679 38.641 83.4659 39.2455 83.1388C43.7918 76.8704 49.4055 71.4829 55.8201 67.2323C60.0709 64.9166 63.2777 62.6768 68.0879 62.0504C70.1014 63.9485 71.4065 66.53 74.1658 68.8837C79.5726 73.9707 84.3269 77.4064 91.8031 78.6781L92.5489 78.4124L92.2879 77.7101C88.3353 71.7879 82.2946 68.0485 76.1048 64.9545C75.0421 64.1194 72.4879 62.7337 72.376 61.0443C76.7016 59.6134 81.3262 59.397 85.7625 60.418C91.3557 70.2314 97.3031 80.9559 106.066 87.1059C106.718 87.2578 107.166 86.3277 106.849 85.7203C100.771 70.5351 96.8743 69.0925 90.6472 62.0693C90.3116 61.5568 89.8455 60.342 90.7404 59.9434L96.5574 60.0383C98.4218 60.3041 100.995 59.7536 101.461 60.5888C101.74 70.6869 108.135 78.3934 111.864 86.0619C111.864 86.0619 113.095 86.7832 113.039 85.4735C111.473 67.7068 105.022 63.6068 104.052 60.5888C105.038 60.4771 106.036 60.6343 106.942 61.0443C110.662 69.1791 116.546 76.0901 123.927 80.9939C124.095 81.1078 125.008 81.2217 124.412 79.855C122.286 72.4712 115.686 68.6939 111.361 63.1133L110.615 61.6897L111.473 61.5758C113.414 61.8293 115.303 62.3998 117.066 63.2652C119.494 67.7427 122.653 71.7671 126.407 75.1666C129.315 77.824 131.795 81.0319 136.101 81.905H136.568L136.698 81.5064L136.568 80.9369C133.846 73.6291 126.537 70.5541 121.391 65.4101C121.037 65.0684 120.403 63.7397 121.391 63.5119L129.707 64.7457C142.198 81.943 147.027 81.2596 147.027 81.2596C147.027 81.2596 150.756 82.1518 149.059 79.3615C144.995 74.9957 141.434 73.0027 136.568 69.0166C135.691 68.1624 133.51 66.6439 133.734 65.0874C135.598 65.3721 135.822 65.3531 139.457 65.7707C140.669 65.8929 141.864 66.154 143.018 66.549C149.544 69.567 150.122 78.9629 165.951 80.9369C166.529 80.9369 166.64 80.2156 166.249 79.7031C161.718 76.0777 149.935 67.9156 149.208 66.9855C152.193 67.2854 155.153 67.8056 158.064 68.542C166.025 72.9647 170.891 76.2675 182.301 74.711C183.29 73.2494 181.705 72.642 180.437 72.0916L173.949 69.4721C173.129 69.2064 169.549 68.4851 168.356 68.0485C175.179 65.8467 184.166 63.2842 190.169 59.5258C191.12 58.7476 192.257 58.1592 193.171 57.324C193.858 56.725 194.379 55.9526 194.681 55.0842C194.998 54.0592 193.432 54.4957 193.432 54.4957H193.357ZM78.6777 55.7295C77.9692 55.274 78.5286 54.3629 78.6777 54.0022C78.8269 53.6416 81.3438 49.1999 83.5065 50.3578C83.898 51.4777 80.1692 55.9763 78.6777 55.7295ZM153.832 57.324C152.62 59.374 153.478 62.2781 151.968 64.1763L141.322 62.7527C147.493 60.4939 152.508 56.1281 155.491 54.3629L153.832 57.324ZM165.298 65.7897C165.298 64.6129 166.529 63.5499 167.368 62.7527C170.947 59.7346 171.469 62.7527 171.469 62.7527C169.708 64.2961 167.58 65.3432 165.298 65.7897Z" fill="white"/>
</svg>
