<svg width="70" height="70" viewBox="0 0 70 70" fill="none" xmlns="http://www.w3.org/2000/svg">
    <path d="M69.8221 20.5803C69.6581 16.8609 69.0565 14.3038 68.1947 12.0881C67.3057 9.7362 65.938 7.63053 64.1461 5.88007C62.3953 4.10238 60.2753 2.72103 57.9502 1.84607C55.7212 0.984463 53.1771 0.382995 49.457 0.219007C45.7091 0.0411306 44.5193 0 35.0136 0C25.508 0 24.3182 0.0411306 20.5842 0.205119C16.8641 0.369107 14.3066 0.971109 12.091 1.83218C9.73806 2.72103 7.63198 4.08849 5.8812 5.88007C4.10316 7.63053 2.72208 9.75009 1.84642 12.0748C0.984651 14.3038 0.383068 16.847 0.219049 20.5664C0.0411384 24.3135 0 25.5031 0 35.0069C0 44.5108 0.0411384 45.7004 0.205158 49.4336C0.369178 53.153 0.971295 55.7101 1.83306 57.9258C2.72208 60.2777 4.10316 62.3834 5.8812 64.1338C7.63198 65.9115 9.75195 67.2929 12.0771 68.1678C14.3066 69.0294 16.8502 69.6309 20.5708 69.7949C24.3043 69.9594 25.4946 70 35.0003 70C44.5059 70 45.6957 69.9594 49.4297 69.7949C53.1498 69.6309 55.7073 69.0294 57.9229 68.1678C62.6282 66.349 66.3483 62.6296 68.1675 57.9258C69.0287 55.6967 69.6308 53.153 69.7948 49.4336C69.9589 45.7004 70 44.5108 70 35.0069C70 25.5031 69.9861 24.3135 69.8221 20.5803ZM63.5172 49.1601C63.3666 52.5788 62.7922 54.4249 62.3135 55.6556C61.1371 58.7051 58.7163 61.1254 55.6662 62.3016C54.4352 62.7802 52.5755 63.3545 49.1695 63.5046C45.4767 63.6691 44.3691 63.7097 35.0275 63.7097C25.6859 63.7097 24.5645 63.6691 20.885 63.5046C17.4657 63.3545 15.6193 62.7802 14.3883 62.3016C12.8705 61.7408 11.4888 60.8519 10.3674 59.6896C9.20486 58.5545 8.31584 57.187 7.75486 55.6695C7.27616 54.4387 6.70183 52.5788 6.5517 49.174C6.38714 45.4819 6.34654 44.374 6.34654 35.0342C6.34654 25.6943 6.38714 24.5731 6.5517 20.8949C6.70183 17.4762 7.27616 15.6302 7.75486 14.3994C8.31584 12.8814 9.20486 11.5005 10.3813 10.3788C11.5161 9.21646 12.8838 8.32761 14.4022 7.76727C15.6331 7.28866 17.4935 6.71444 20.8989 6.5638C24.5917 6.39981 25.6998 6.35868 35.0409 6.35868C44.3964 6.35868 45.5039 6.39981 49.1834 6.5638C52.6027 6.71444 54.4491 7.28866 55.6801 7.76727C57.1979 8.32761 58.5795 9.21646 59.701 10.3788C60.8635 11.5139 61.7526 12.8814 62.3135 14.3994C62.7922 15.6302 63.3666 17.4896 63.5172 20.8949C63.6812 24.587 63.7224 25.6943 63.7224 35.0342C63.7224 44.374 63.6812 45.468 63.5172 49.1601Z" fill="white"/>
    <path d="M35.0137 17.0249C25.0844 17.0249 17.0282 25.079 17.0282 35.0069C17.0282 44.9349 25.0844 52.989 35.0137 52.989C44.9436 52.989 52.9992 44.9349 52.9992 35.0069C52.9992 25.079 44.9436 17.0249 35.0137 17.0249ZM35.0137 46.6715C28.572 46.6715 23.3469 41.4479 23.3469 35.0069C23.3469 28.566 28.572 23.3424 35.0137 23.3424C41.4559 23.3424 46.6805 28.566 46.6805 35.0069C46.6805 41.4479 41.4559 46.6715 35.0137 46.6715Z" fill="white"/>
    <path d="M57.9096 16.3139C57.9096 18.6322 56.0295 20.5119 53.7103 20.5119C51.3916 20.5119 49.5115 18.6322 49.5115 16.3139C49.5115 13.9951 51.3916 12.1159 53.7103 12.1159C56.0295 12.1159 57.9096 13.9951 57.9096 16.3139Z" fill="white"/>
</svg>
