<svg width="91" height="19" viewBox="0 0 91 19" fill="none" xmlns="http://www.w3.org/2000/svg">
    <path d="M9.88636 8.25867V17.632L14.2101 19V8.25867H16.9914V17.632L21.2898 19L24.0964 15.2H21.3151V5.95333L17.0167 4.45867L14.2101 7.752V5.95333L9.91164 4.45867L7.10503 7.752V5.95333L2.80661 4.45867L0 8.25867H2.78133V17.632L7.10503 19V8.25867H9.88636ZM56.3092 15.2V5.82667L51.9856 4.45867V17.5053L56.284 19L59.0906 15.7067V17.5053L63.389 19L66.1956 15.2H63.4143V5.82667L59.0906 4.45867V15.2H56.3092ZM88.2187 6.33333L83.9961 4.45867L78.9897 6.84L83.9961 8.71467L77.1186 12.0333V17.4547L81.4423 19L83.9961 15.6813V17.5053L88.3198 19L91 15.1747H88.2187V6.33333ZM29.6844 19L34.6402 17.024L29.6844 15.1747V12.5147L36.1825 9.37333L32.491 4.45867L25.3607 7.87867V17.1507L29.6844 19ZM76.1831 14.896L70.9239 13.3L75.8544 7.01733L69.6849 4.45867L66.4485 8.56267L71.733 10.184L66.7013 16.4413L72.9466 19L76.1831 14.896ZM81.4423 15.2V11.4507L83.9961 10.2347V15.2H81.4423ZM29.6844 6.916L31.8589 9.90533L29.6844 10.944V6.916ZM37.2951 17.1507L41.6188 19L48.7238 16.1627V4.94L37.2951 0V4.37543L44.4001 7.18743V16.188L41.6188 15.1747V7.27067L37.2951 8.63867V17.1507Z" fill="white"/>
</svg>
