<svg width="148" height="142" viewBox="0 0 148 142" fill="none" xmlns="http://www.w3.org/2000/svg">
    <path d="M68.6158 33.8542C68.3402 25.4472 66.9136 17.7983 62.3323 10.6326C57.5741 3.19031 45.4648 1.93608 37.5399 1.27567C17.5495 -0.390196 1 5.1413 1 27.5707C1 42.2565 2.77763 54.4401 9.87885 67.7304C18.7068 84.2525 31.2226 90.0427 46.4187 99.6943C54.7084 104.959 65.5035 111.409 70.5282 120.252C73.394 125.296 75.2704 131.122 78.4509 135.893" stroke="white" stroke-width="2" stroke-linecap="round"/>
    <path d="M68.6162 32.6246C82.7983 18.8597 105.416 10.9509 124.758 10.5641C134.645 10.3664 144.638 10.5634 145.794 22.3798C147.449 39.2995 148.304 59.8926 135.481 72.716C118.834 89.3625 96.5512 99.8765 81.5247 118.066C79.6302 120.36 67.5014 140.81 72.3043 140.81" stroke="white" stroke-width="2" stroke-linecap="round"/>
</svg>
