<svg width="112" height="112" viewBox="0 0 112 112" fill="none" xmlns="http://www.w3.org/2000/svg">
    <path d="M1 41.5695C1 57.3024 2.22938 73.4104 2.22938 88.9006C2.22938 97.2483 7.49787 104.16 15.1379 107.273C20.7005 109.539 26.4028 109.185 32.2809 109.185C37.2425 109.185 42.82 111.068 47.7164 110.141C68.8123 106.15 89.5148 91.4761 93.1351 68.5475C94.5445 59.6216 98.8413 51.2181 99.282 42.1842C99.6061 35.5406 100.439 29.5478 102.424 23.1971C104.702 15.9077 110.415 8.73795 110.415 1" stroke="white" stroke-width="2" stroke-linecap="round"/>
    <path d="M53.8633 19.4406C42.6398 11.5538 34.9772 12.0643 21.8994 12.0643" stroke="white" stroke-width="2" stroke-linecap="round"/>
    <path d="M69.8452 23.1288C79.758 25.0169 90.7447 23.7557 90.7447 36.6519" stroke="white" stroke-width="2" stroke-linecap="round"/>
    <path d="M21.8994 72.304C40.0732 76.2334 55.3154 74.7627 73.5333 74.7627" stroke="white" stroke-width="2" stroke-linecap="round"/>
</svg>
