<svg width="129" height="940" viewBox="0 0 129 940" fill="none" xmlns="http://www.w3.org/2000/svg">
    <path d="M66.8022 3.96024C55.3962 2.85074 45.2628 2.83532 35.8803 10.1998C33.7718 11.8548 33.1966 14.2344 32.6592 16.8064C31.0745 24.3907 29.3314 33.9771 34.1317 40.8469C42.9204 53.4249 63.5702 49.3804 76.6493 49.3804C90.5413 49.3804 104.914 50.7639 117.418 43.5538C123.017 40.3254 130.513 34.9878 127.174 27.5879C121.11 14.1534 101.165 8.45392 88.107 5.19897C79.6923 3.1015 70.5497 -0.255495 61.8326 1.48278" stroke="white" stroke-width="2" stroke-linecap="round"/>
    <path d="M1 869.569C1 885.302 2.22938 901.41 2.22938 916.901C2.22938 925.248 7.49787 932.16 15.1379 935.273C20.7005 937.539 26.4028 937.185 32.2809 937.185C37.2425 937.185 42.82 939.068 47.7164 938.141C68.8123 934.15 89.5148 919.476 93.1351 896.548C94.5445 887.622 98.8413 879.218 99.282 870.184C99.6061 863.541 100.439 857.548 102.424 851.197C104.702 843.908 110.415 836.738 110.415 829" stroke="white" stroke-width="2" stroke-linecap="round"/>
    <path d="M53.8633 847.441C42.6398 839.554 34.9772 840.064 21.8994 840.064" stroke="white" stroke-width="2" stroke-linecap="round"/>
    <path d="M69.8452 851.129C79.758 853.017 90.7447 851.756 90.7447 864.652" stroke="white" stroke-width="2" stroke-linecap="round"/>
    <path d="M21.8994 900.304C40.0732 904.233 55.3154 902.763 73.5333 902.763" stroke="white" stroke-width="2" stroke-linecap="round"/>
</svg>
