<svg width="139" height="98" viewBox="0 0 139 98" fill="none" xmlns="http://www.w3.org/2000/svg">
    <path d="M36.652 83.8514C47.6015 59.0325 49.8914 32.5151 57.005 6.67373C60.0447 -4.36831 59.9479 3.05381 60.7615 9.20079C62.3407 21.1328 64.1054 32.89 64.9277 44.9211C65.8921 59.0316 66.5877 72.9923 69.1622 86.9248C69.6746 89.6976 70.3194 92.892 70.8697 95.7354C71.4215 98.5866 70.5876 95.2133 70.5282 95.0524C61.7943 71.398 47.3903 48.3751 30.0953 30.0319C28.2525 28.0775 30.8591 30.1499 31.9394 30.51C46.3135 35.3014 62.3605 36.6027 77.3581 37.2716C94.0644 38.0167 111.298 38.1201 127.831 35.2226C131.667 34.5503 133.97 34.0874 137.461 33.1054C138.075 32.9327 136.184 33.1167 135.549 33.1737C98.0835 36.5359 63.5417 46.1158 29.9587 63.7715C19.6305 69.2015 2.84196 78.334 1 91.2277" stroke="white" stroke-width="2" stroke-linecap="round"/>
</svg>
