<svg width="208" height="23" viewBox="0 0 208 23" fill="none" xmlns="http://www.w3.org/2000/svg">
    <path d="M72.6002 3.45876C87.8005 3.80422 103.172 7.59733 118.224 9.46905C127.905 10.673 137.677 12.0644 147.456 12.0644C150.754 12.0644 153.704 12.1587 156.813 13.3621C159.229 14.2974 167.559 15.6624 160.979 15.7525C146.19 15.9551 134.308 15.7673 119.317 12.3376C97.6567 7.3824 76.8267 1 54.501 1C42.6098 1 77.9493 5.01417 89.7432 6.5322C103.848 8.3477 117.601 12.9533 131.747 14.25C134.726 14.5231 139.292 13.5778 142.128 14.5232C146.238 15.8929 133.483 15.2062 129.152 15.2062C97.7597 15.2062 66.3644 14.5232 34.9676 14.5232C29.0743 14.5232 24.6452 13.7763 33.3284 15.0696C54.122 18.1665 76.8437 16.3349 97.7342 16.7087C112.958 16.9811 128.149 17.2512 143.358 17.9381C146.323 18.072 152.957 20.1348 152.237 17.2551C152.137 16.8558 150.617 16.9819 150.461 16.9819C143.845 16.9819 137.149 16.169 130.586 15.5476C88.67 11.5793 46.1006 2.36598 3.95992 2.36598C-10.7058 2.36598 33.1404 5.34006 47.7395 6.7371C100.692 11.8043 153.603 17.3889 206.603 21.8994" stroke="white" stroke-width="2" stroke-linecap="round"/>
</svg>
