<svg width="67" height="35" viewBox="0 0 67 35" fill="none" xmlns="http://www.w3.org/2000/svg">
    <path d="M67 13.6777V8.22312H62.913V2.62689H57.553V17.7863C57.5476 20.2557 58.4685 22.6266 60.1138 24.3794C61.759 26.1322 63.9944 27.1238 66.33 27.1369H67V21.4699H66.33C65.8715 21.4737 65.4168 21.381 64.9925 21.1972C64.5682 21.0134 64.1827 20.7422 63.8585 20.3994C63.5343 20.0566 63.2778 19.649 63.1039 19.2004C62.9301 18.7518 62.8424 18.2711 62.846 17.7863V13.6068H67V13.6777ZM29.815 8.50647C28.6567 8.50643 27.5099 8.74879 26.4406 9.21957C25.3714 9.69035 24.4008 10.3802 23.5849 11.2495C22.769 12.1187 22.1239 13.1501 21.6868 14.2841C21.2497 15.4182 21.0292 16.6325 21.038 17.8571V35H26.398V26.4286C27.7409 27.0488 29.2089 27.3048 30.669 27.1734C32.1292 27.042 33.5352 26.5273 34.7595 25.676C35.9839 24.8247 36.9879 23.6637 37.6806 22.2984C38.3732 20.933 38.7326 19.4065 38.726 17.8571C38.6792 15.3805 37.7233 13.0201 36.0603 11.2751C34.3974 9.53009 32.1578 8.53724 29.815 8.50647ZM33.5 17.8571C33.5009 18.3783 33.4044 18.8946 33.2162 19.3763C33.028 19.858 32.7516 20.2957 32.403 20.6643C32.0545 21.0328 31.6405 21.325 31.1849 21.524C30.7293 21.723 30.241 21.825 29.748 21.8241C29.0059 21.8241 28.2805 21.5914 27.6635 21.1555C27.0465 20.7196 26.5656 20.1001 26.2816 19.3752C25.9976 18.6503 25.9233 17.8527 26.0681 17.0832C26.2129 16.3137 26.5702 15.6069 27.0949 15.0521C27.6197 14.4973 28.2882 14.1195 29.016 13.9664C29.7438 13.8133 30.4982 13.8919 31.1838 14.1921C31.8694 14.4924 32.4554 15.0008 32.8677 15.6532C33.2799 16.3056 33.5 17.0725 33.5 17.8571ZM10.988 10.915C7.169 9.71072 6.566 8.86066 6.566 7.72725C6.566 6.59384 7.437 5.74378 9.179 5.74378C11.39 5.74378 12.529 6.87719 13.4 8.71899L18.09 5.81461C17.311 4.02601 16.0497 2.52053 14.4644 1.48712C12.879 0.453699 11.0403 -0.0616065 9.179 0.00587252C4.958 0.00587252 1.005 2.91024 1.005 7.86893C1.005 12.8276 4.556 14.6694 8.174 15.732C11.792 16.7946 13.199 17.4321 13.199 18.9905C13.199 19.9823 12.529 21.1157 9.916 21.1157C8.80955 21.1897 7.71089 20.8758 6.7903 20.2227C5.8697 19.5695 5.17856 18.6136 4.824 17.5029L0 20.4781C1.34 24.3034 4.623 26.8536 9.782 26.8536C15.075 26.8536 18.827 23.8784 18.827 18.9197C18.827 13.4652 14.673 12.1192 10.988 10.915ZM47.905 13.8902C47.1629 13.8902 46.4375 14.1228 45.8205 14.5587C45.2035 14.9946 44.7226 15.6142 44.4386 16.339C44.1546 17.0639 44.0803 17.8615 44.2251 18.631C44.3699 19.4006 44.7272 20.1074 45.2519 20.6622C45.7767 21.217 46.4452 21.5948 47.173 21.7478C47.9008 21.9009 48.6552 21.8224 49.3408 21.5221C50.0264 21.2219 50.6124 20.7134 51.0247 20.061C51.4369 19.4087 51.657 18.6417 51.657 17.8571C51.6365 16.8118 51.2346 15.8154 50.5353 15.0761C49.8361 14.3368 48.8937 13.9119 47.905 13.8902Z" fill="white"/>
</svg>
